<svg version="1.2" xmlns="http://www.w3.org/2000/svg" viewBox="0 0 2130 1296" width="2000" height="1217">
	<style>
		.s0 { fill: #000000 } 
		.s1 { fill: #231f20 } 
	</style>
	<filter id="f0">
		<feFlood flood-color="#0044cc" flood-opacity="1" />
		<feBlend mode="normal" in2="SourceGraphic"/>
		<feComposite in2="SourceAlpha" operator="in" />
	</filter>
	<g id="Carpeta 1" filter="url(#f0)">
		<path id="notemizu" fill-rule="evenodd" class="s0" d="m707.48 615.4q-1.02-5.77-2.72-9.51-3.73-6.11-13.58-6.11-10.52 0-19.68 4.42-8.83 4.41-15.96 11.88v129.65h-49.55v-183.96h46.16v15.27q11.2-8.14 24.1-13.24 12.9-5.43 27.15-5.43 14.6 0 24.78 5.1 10.52 4.75 16.97 13.23 6.79 8.49 9.84 20.37 3.4 11.54 3.4 24.78v123.88h-49.56v-116.08q0-8.48-1.35-14.25zm154.37 133.73q-36.99 0-58.71-26.48-21.73-26.13-21.73-68.9 0-42.77 21.73-68.9 21.72-26.48 58.71-26.48 37 0 59.06 26.48 21.73 26.13 21.73 68.9 0 42.77-21.73 68.9-22.06 26.48-59.06 26.48zm0-149.35q-10.52 0-16.63 5.77-6.11 5.43-9.5 13.58-3.06 8.15-4.07 17.65-0.68 9.16-0.68 16.97 0 7.81 0.68 17.31 1.01 9.17 4.07 17.31 3.39 8.15 9.5 13.92 6.11 5.43 16.63 5.43 10.53 0 16.64-5.43 6.45-5.43 9.5-13.58 3.39-8.14 4.07-17.65 1.02-9.5 1.02-17.31 0-27.15-7.81-41.07-7.12-12.9-23.42-12.9zm167.63 149.35q-5.09 0-11.2 0-21.39 0-33.94-10.52-12.56-10.87-12.56-33.27v-102.16h-24.44v-41.41h24.44v-58.38h49.55v58.38h34.62v41.41h-34.62v96.05q0 5.77 3.06 7.13 3.05 1.36 8.14 1.36 5.77 0 11.2-1.36l12.22-3.05v42.42q-5.77 1.36-9.84 2.04-4.07 0.34-7.81 0.68-3.73 0.34-8.82 0.68zm113.68 0q-20.71 0-35.64-7.81-14.94-8.14-24.44-21.38-9.5-13.24-14.26-30.21-4.41-17.31-4.41-35.98 0-19.01 4.41-36.32 4.76-17.31 14.6-30.21 9.84-13.23 24.78-21.04 15.27-7.81 36.32-7.81 32.24 0 53.28 23.42 10.19 11.54 16.3 26.14 6.45 14.59 6.45 32.58v23.76h-106.58q1.02 8.15 2.37 15.96 1.7 7.8 5.09 13.91 3.74 6.11 9.85 9.84 6.11 3.74 16.29 3.74 12.9 0 21.38-6.11 8.83-6.45 16.3-16.29l36.65 23.08q-8.14 12.22-16.63 20.02-8.14 7.47-17.65 11.88-17.99 8.83-44.46 8.83zm1.02-152.06q-7.81 0-13.24 2.37-5.09 2.38-8.49 6.79-3.39 4.08-5.43 9.85-1.69 5.77-2.71 12.21h59.74q-1.02-13.91-8.49-22.4-7.81-8.82-21.38-8.82zm295.26 7.8q-4.41-5.09-13.92-5.09-3.39 0-7.8 2.04-4.08 1.7-8.49 4.41-4.41 2.38-8.14 5.43-3.74 3.06-6.11 5.09v128.98h-49.56v-126.6q0-9.16-4.41-14.26-4.07-5.09-13.58-5.09-3.73 0-8.14 2.04-4.42 1.7-8.83 4.41-4.07 2.38-7.81 5.43-3.73 3.06-6.11 5.09v128.98h-49.55v-183.96h46.16v13.91q10.86-9.16 22.06-13.23 11.54-4.08 26.14-4.08 13.91 0 25.79 5.77 11.88 5.77 19.35 17.65 12.9-12.22 27.15-17.65 14.26-5.77 32.59-5.77 11.88 0 20.7 4.76 8.83 4.41 14.6 12.21 6.11 7.47 8.82 17.32 3.06 9.84 3.06 20.7v132.37h-49.56v-126.6q0-9.16-4.41-14.26zm143.84-115.06v46.84h-48.88v-46.84zm0.68 71.96v183.96h-49.55v-183.96zm105.87 41.41h-75.01l0.34-41.41h138.49v35.3l-81.13 107.25h82.14v41.41h-146.29v-34.96zm167.64 140.52q-12.22 5.43-27.16 5.43-14.25 0-24.78-4.75-10.18-4.75-17.31-12.9-6.78-8.48-10.18-19.68-3.05-11.54-3.05-24.78v-125.25h49.55v118.8q0 15.27 4.41 21.38 3.4 5.77 14.26 5.77 9.84 0 19.01-4.41 9.16-4.75 15.61-11.54v-130h49.56v183.97h-45.83v-15.61q-11.88 7.8-24.09 13.57z"/>
		<path id="games" fill-rule="evenodd" class="s0" d="m660.08 869.14q0-6 3.77-9.94 3.77-4.11 8.39-6.85-5.48-4.45-8.56-10.44-2.91-5.99-2.91-13.19 0-7.7 3.08-13.7 3.08-5.99 8.22-10.1 5.14-4.28 11.81-6.33 6.68-2.23 13.87-2.23 11.65 0 21.24 7.19 4.62-5.14 10.62-6.16 6.16-1.03 12.67-1.03v18.15q-2.57 0-6.34 0-3.77 0-6.16 1.03 3.59 6.51 3.59 14.55 0 8.57-2.91 14.56-2.91 5.82-7.88 9.59-4.96 3.59-11.81 5.31-6.85 1.54-14.56 1.54-0.68 0-2.74 0.17-2.05 0-4.28 0.34-2.22 0.17-4.11 1.03-1.71 0.68-1.71 1.88 0 1.2 0.86 2.23 0.85 0.86 3.59 1.37 5.14 1.03 11.13 1.37 6 0.17 11.99 0.85 5.99 0.52 11.47 1.72 5.65 1.2 9.94 4.11 4.45 2.74 7.02 7.7 2.56 4.8 2.56 12.5 0 11.82-13.52 19.7-12.68 7.36-29.46 7.36-5.48 0-12.84-0.69-7.19-0.85-13.7-3.25-6.33-2.4-10.79-7.02-4.45-4.62-4.45-12.33 0-6.51 3.25-10.79 3.26-4.45 9.25-6.33-9.59-5.31-9.59-13.87zm37.5-53.26q-5.99 0-9.76 3.6-3.76 3.42-3.76 9.42 0 5.82 4.11 9.24 4.11 3.43 9.58 3.43 5.14 0 8.74-3.77 3.77-3.94 3.77-8.9 0-5.66-3.6-9.25-3.77-3.77-9.08-3.77zm6.17 74.15q-4.63-0.69-10.79-1.03-6.51 0.51-8.9 2.4-3.6 2.57-3.6 5.99 0 3.77 4.11 5.99 2.4 1.03 6.68 1.72 4.28 0.51 10.79 0.51 1.54 0 4.28-0.34 2.91-0.52 5.65-1.37 2.74-0.86 4.62-2.4 2.06-1.54 2.06-3.94 0-1.54-1.55-3.08-1.37-1.54-5.47-2.91-3.26-0.86-7.88-1.54zm80 0.68q-6.16 1.89-13.87 1.89-5.65 0-10.44-1.89-4.62-1.88-8.05-5.31-3.42-3.42-5.31-8.04-1.88-4.63-1.88-10.28 0-14.21 10.27-22.77 7.37-5.83 15.76-8.39 8.56-2.57 17.46-4.29 3.26-0.68 7.54-1.02v-5.31q0-4.97-3.26-7.19-3.25-2.23-7.87-2.23-7.02 0-11.3 3.25-4.11 3.09-7.71 8.57l-16.78-12.68q5.99-9.58 15.24-14.04 9.42-4.62 20.55-4.62 19.52 0 27.74 9.25 8.39 9.07 8.39 28.25v43.84q0 4.62 0.68 7.53 0.35 1.03-0.34 1.54-0.51 0.35-0.51 0.35v3.76h-22.26l-1.2-6.33q-6.51 4.11-12.85 6.16zm3.6-40.41q-4.45 0.86-8.56 2.57-3.94 1.71-6.85 4.62-2.74 2.74-2.74 7.19 0 3.77 2.05 6.17 2.23 2.22 6.17 2.22 4.62 0 9.42-2.74 4.96-2.91 8.39-5.65v-16.09q-3.43 0.68-7.88 1.71zm146.82-30.48q-2.23-2.57-7.02-2.57-1.72 0-3.94 1.03-2.06 0.85-4.28 2.22-2.23 1.2-4.11 2.74-1.89 1.55-3.08 2.57v65.07h-25.01v-63.87q0-4.62-2.22-7.19-2.06-2.57-6.85-2.57-1.88 0-4.11 1.03-2.23 0.85-4.45 2.22-2.06 1.2-3.94 2.74-1.88 1.55-3.08 2.57v65.07h-25v-92.81h23.28v7.02q5.48-4.62 11.13-6.68 5.83-2.05 13.19-2.05 7.02 0 13.01 2.91 6 2.91 9.76 8.91 6.51-6.17 13.7-8.91 7.2-2.91 16.44-2.91 6 0 10.45 2.4 4.45 2.22 7.36 6.16 3.08 3.77 4.45 8.73 1.55 4.97 1.55 10.45v66.78h-25.01v-63.87q0-4.62-2.22-7.19zm78.78 72.78q-10.44 0-17.98-3.94-7.53-4.11-12.33-10.79-4.79-6.68-7.19-15.24-2.22-8.73-2.22-18.15 0-9.59 2.22-18.32 2.4-8.74 7.37-15.24 4.96-6.68 12.5-10.62 7.7-3.94 18.32-3.94 16.27 0 26.88 11.82 5.14 5.82 8.22 13.18 3.26 7.36 3.26 16.44v11.99h-53.77q0.51 4.11 1.2 8.04 0.85 3.94 2.56 7.03 1.89 3.08 4.97 4.96 3.08 1.88 8.22 1.88 6.51 0 10.79-3.08 4.45-3.25 8.22-8.22l18.49 11.65q-4.11 6.16-8.39 10.1-4.11 3.77-8.9 5.99-9.08 4.46-22.44 4.46zm0.52-76.72q-3.94 0-6.68 1.2-2.57 1.2-4.28 3.42-1.71 2.06-2.74 4.97-0.86 2.91-1.37 6.16h30.14q-0.52-7.02-4.28-11.3-3.94-4.45-10.79-4.45zm81.55 76.72q-9.94 0-19.18-4.11-4.8-2.23-9.08-6-4.11-3.94-8.56-10.1l17.29-13.01q1.54 2.56 3.6 4.96 2.23 2.4 4.62 4.45 2.57 1.89 5.48 3.09 2.91 1.19 6.17 1.19 1.88 0 3.76-0.34 2.06-0.51 3.6-1.37 1.71-1.03 2.74-2.57 1.03-1.54 1.03-3.76 0-3.6-3.43-5.48-2.05-1.2-5.82-2.74-3.59-1.54-8.9-3.6-9.76-3.59-17.98-9.59-8.39-6.33-8.39-19.69 0-6.68 2.56-11.82 2.57-5.13 6.85-8.56 4.29-3.59 9.94-5.31 5.82-1.88 11.98-1.88 10.96 0 18.84 3.77 7.88 3.59 15.24 11.81l-16.27 14.22q-3.08-3.6-7.36-6.85-4.11-3.43-9.08-3.43-3.59 0-6.85 1.37-3.25 1.2-3.25 5.48 0 3.25 4.11 5.65 4.28 2.4 8.9 3.94 4.63 1.54 9.08 3.25 4.62 1.54 8.73 3.94 4.28 2.4 7.54 6.17 6.33 7.87 6.33 19.69 0 12.16-9.76 19.86-9.42 7.37-24.48 7.37z"/>
		<path id="&lt;Path&gt;" class="s1" d="m801.45 88c50.78 23.2 104.79 143.07 33.2 193.71-93.25 65.96-249.57 44.16-378.5 102.02-77.55 34.8-150.23 131.59-112.13 258.56-1.52-144.19 119.57-217.78 214.44-231.72 132.66-19.5 287.06 9.44 358.42-58.42 85.35-81.14 9.23-249.23-115.43-264.15z"/>
		<path id="&lt;Path&gt;" class="s1" d="m741.57 262.88c57.33-20.41 75.68-63.23 75.08-97.44-10.05 18.65-28.18 34.93-55.39 49.02-129.12 66.86-306.7 55.62-376.18 185.11 67.57-86.31 231.7-92.27 356.49-136.69z"/>
		<path id="&lt;Path&gt;" class="s1" d="m592.4 457.33c-58.99-7.71-312.86 34.8-195.33 382.9-41.49-10.25-90.17-9.26-139.13 5.42-113.19 33.96-184.93 128.23-160.23 210.55 24.7 82.33 136.48 121.53 249.67 87.57 113.2-33.96 184.94-128.22 160.24-210.55q-1.24-4.12-2.77-8.09 0 0 0.01 0c-145.55-381.34-6.48-447.93 87.54-467.8z"/>
	</g>
</svg>